<svg id="svg8" version="1.1" viewBox="0 0 207.44366 12.021972708994708" xmlns="http://www.w3.org/2000/svg" style="max-height: 500px" width="207.44366" height="12.021972708994708">
  <defs id="defs2"/>
  
  <metadata id="metadata5">
    
      
        image/svg+xml
        
        
      
    
  </metadata>
  <g transform="translate(7.33275,-160.98924)" id="layer1">
    <g transform="translate(92.22619,128.13393)" id="g862">
      <path id="path876" d="M -99.558929,60.25965 V 48.490733 l 0.595312,-0.143658 0.595313,-0.143658 37.703124,0.07247 37.703125,0.07247 0.06887,11.840104 0.06887,11.840104 H -61.19162 -99.558928 Z m 80.329348,11.350403 -0.160599,-0.418513 0.004,-5.203883 0.004,-5.203881 0.210336,-0.331274 0.210338,-0.331274 63.351756,0.06669 63.35176,0.06669 0.0712,5.886979 0.0712,5.886979 H 44.407771 -19.068981 Z m 54.343567,-6.460652 v -3.175 h -0.727605 -0.727604 v 3.175 3.175 h 0.727604 0.727605 z m 15.06335,2.050521 0.01013,-1.124479 -0.04324,-0.529167 -0.04324,-0.529166 -0.0024,-1.521354 -0.0024,-1.521355 h -0.678021 -0.678024 v 3.175 3.175 h 0.713587 0.713584 l 0.01013,-1.124479 z m 4.313203,0.322974 -0.864068,-0.785995 -0.988015,0.0071 -0.988012,0.0071 0.926041,0.779515 0.926042,0.779516 0.926042,-5.29e-4 0.926041,-5.3e-4 -0.864071,-0.785992 z m 16.606779,0.577803 v -0.223705 l -1.563095,-2.885149 -1.563094,-2.885152 -0.824863,-0.08341 -0.824865,-0.08341 1.330664,2.46466 1.330664,2.46466 0.32155,0.727604 0.321554,0.727604 h 0.735743 0.735742 z m 11.1125,-2.951298 v -3.175 H 81.482214 80.75461 v 3.175 3.175 h 0.727604 0.727604 z m 20.108332,3.009408 v -0.165595 l -1.60526,-3.009405 -1.605267,-3.009408 h -0.744807 -0.744808 l 0.299551,0.867442 0.29955,0.867442 0.595313,0.75574 0.595312,0.75574 v 0.378846 0.378846 l 0.661456,0.867217 0.66146,0.867217 v 0.305755 0.305755 h 0.79375 0.79375 z m -16.342083,-0.826595 0.690252,-0.727604 0.170554,-0.928796 0.170553,-0.928794 -0.26593,-0.699444 -0.265928,-0.699442 -0.595265,-0.554575 -0.595265,-0.554574 -0.148547,-2.04e-4 -0.148548,-2.06e-4 0.09196,2.521683 0.09196,2.521682 -0.322789,0.388938 -0.322792,0.38894 h 0.37977 0.379772 z m -47.013598,-2.303079 0.649433,-0.64943 V 63.706218 63.032735 L 39.082735,62.503568 38.553569,61.974401 H 38.170195 37.78682 l 0.394139,0.943309 0.394139,0.943308 -0.407638,0.817134 -0.407641,0.817134 v 0.09164 0.09164 h 0.276608 0.276612 z m 15.08125,0 0.649433,-0.64943 v -0.505513 -0.505511 l -0.54837,-0.69714 -0.54837,-0.69714 h -0.36417 -0.364173 l 0.394139,0.943309 0.39414,0.943308 -0.407639,0.817134 -0.40764,0.817134 v 0.09164 0.09164 h 0.276608 0.276611 z M -99.2282,44.601256 -99.558929,44.467804 V 38.66902 32.870235 h 3.571875 3.571875 v 5.792526 5.792526 l -0.418515,0.160599 -0.418514,0.160599 -2.822631,-0.02089 -2.822632,-0.02089 z m 13.701497,-0.336544 -0.273893,-0.511772 v -5.022838 -5.022838 l 0.160599,-0.418514 0.160599,-0.418515 h 3.647552 3.647552 l 0.160599,0.418515 0.160599,0.418514 v 5.21711 5.217111 l -0.3175,0.3175 -0.3175,0.3175 h -3.377358 -3.377357 z m 9.568607,0.194273 -0.3175,-0.3175 v -5.217111 -5.21711 l 0.160599,-0.418514 0.160599,-0.418515 h 91.9144 91.914398 v 5.792526 5.792526 l -0.41851,0.160599 -0.41852,0.160599 H 15.698387 -75.640596 Z M 6.6047085,40.79394 7.5964726,40.518513 7.9937709,39.750221 8.3910693,38.98193 V 36.719833 34.457735 H 7.8619026 7.3327359 v 2.080985 2.080986 l -0.5483701,0.697139 -0.5483701,0.69714 H 5.3584681 4.4809431 L 3.8832308,39.529988 3.2855212,39.045991 3.1970212,36.844616 3.1085182,34.64324 2.9830792,34.517801 2.8576429,34.392362 2.4493564,34.549037 2.04107,34.705711 l 0.00389,2.058824 0.00389,2.058825 0.3305096,0.661458 0.3305095,0.661459 0.9223613,0.462609 0.9223613,0.46261 0.5291667,-0.0011 0.5291666,-0.0011 0.9917642,-0.275427 z m 58.8241395,-0.223035 1.078405,-0.489792 0.442949,-0.933446 0.44295,-0.933446 v -0.431533 -0.431532 l -0.380953,-0.911751 -0.380955,-0.91175 -0.875816,-0.533971 -0.875818,-0.533971 -1.137618,-9.89e-4 -1.137619,-9.89e-4 -0.79231,0.40972 -0.792314,0.40972 -0.516474,0.847051 -0.516477,0.847051 -0.0011,0.621472 -0.0011,0.621472 0.442949,0.933446 0.44295,0.933446 1.078405,0.489792 1.078404,0.489792 h 0.661458 0.661459 l 1.078404,-0.489792 z m -3.47168,-1.206352 -0.649433,-0.649432 v -1.04684 -1.04684 l 0.814052,-0.684978 0.814048,-0.684978 h 0.75315 0.75315 l 0.814049,0.684978 0.814051,0.684978 v 1.04684 1.04684 l -0.649433,0.649432 -0.64943,0.649432 h -1.082387 -1.082387 z m 16.082759,0.901371 0.465724,-0.575146 v -0.591139 -0.59114 l -0.496707,-0.449514 -0.496708,-0.449515 -1.156938,-0.58368 -1.156938,-0.58368 -0.08579,-0.464281 -0.08579,-0.46428 0.603292,-0.223172 0.603293,-0.223173 0.872968,0.196887 0.872967,0.196886 0.138292,-0.223763 0.138295,-0.223762 -0.519184,-0.277859 -0.519184,-0.277858 h -1.040045 -1.040045 l -0.69714,0.54837 -0.69714,0.54837 v 0.451092 0.451092 l 0.427725,0.610665 0.427728,0.610665 1.165394,0.499546 1.165392,0.499546 0.156273,0.407238 0.156271,0.407238 -0.34562,0.416448 -0.345622,0.416447 -0.808458,-0.114915 -0.808458,-0.114916 -0.489855,-0.211215 -0.489858,-0.211214 0.09437,0.490025 0.09437,0.490025 0.660069,0.196642 0.660069,0.196642 1.055629,-0.102228 1.05563,-0.102228 z m 10.386681,0.426955 0.908127,-0.37944 0.164206,-0.65425 0.164205,-0.65425 -0.28753,-0.537259 -0.287534,-0.537259 -1.386062,-0.744155 -1.386062,-0.744156 -0.08834,-0.464281 -0.08834,-0.46428 0.603292,-0.223172 0.603292,-0.223173 0.872969,0.196887 0.872966,0.196886 0.138293,-0.223763 0.138295,-0.223762 -0.519184,-0.277859 -0.519184,-0.277858 H 87.121998 85.91398 l -0.529167,0.529167 -0.529167,0.529166 0.004,0.595313 0.004,0.595312 0.211851,0.333728 0.211855,0.333728 1.437741,0.726299 1.43774,0.726299 v 0.498637 0.498637 l -0.451734,0.284947 -0.451736,0.284947 -1.082606,-0.288965 -1.082609,-0.288965 0.08052,0.418129 0.08052,0.418128 0.660069,0.183664 0.660069,0.183665 0.471519,0.02637 0.47152,0.02637 0.908126,-0.379439 z M -4.3089305,40.543152 v -0.264584 l -1.3890625,-0.0041 -1.3890625,-0.0041 -0.3204633,-0.203656 -0.3204607,-0.203655 -0.076414,-2.636565 -0.076412,-2.636564 h -0.5291666 -0.5291667 l -0.075935,2.760238 -0.075933,2.760238 0.133776,0.348616 0.133776,0.348616 h 2.2572635 2.257261 z m 20.3183615,-1.785938 0.07774,-1.918229 h 0.325032 0.325036 l 1.669023,1.999989 1.669026,1.999989 0.574037,-0.08176 0.574038,-0.08176 v -3.042708 -3.042708 h -0.529167 -0.529167 l -0.07289,1.5875 -0.07289,1.5875 -0.122867,0.345377 -0.122865,0.345378 -0.366879,-0.213086 -0.366882,-0.213086 -1.529876,-1.798837 -1.529879,-1.798836 -0.553321,0.07905 -0.55332,0.07905 -0.07471,3.128378 -0.07471,3.128379 0.60388,-0.08567 0.603877,-0.08567 z m 13.391682,1.389063 0.433406,-0.661459 h 1.443008 1.443009 l 0.433406,0.661459 0.433403,0.661458 h 0.516567 0.516567 l -0.147264,-0.463985 -0.147262,-0.463984 -1.16392,-2.64487 -1.163918,-2.644869 h -0.877536 -0.877536 l -1.13602,2.910416 -1.136017,2.910417 -2.65e-4,0.198437 -5.05e-4,0.198438 h 0.498737 0.498736 z m 0.954357,-1.447147 -0.39289,-0.248418 0.39289,-1.117268 0.392891,-1.117268 0.333396,-0.108408 0.333396,-0.108408 0.51031,1.139814 0.51031,1.139815 -0.280792,0.338331 -0.280789,0.338332 -0.562915,-0.0041 -0.562916,-0.0041 z m 19.046015,0.785688 0.132292,-1.190625 h 0.661458 0.661459 l 0.661458,1.256005 0.661458,1.256006 0.595313,7.67e-4 0.595312,7.64e-4 -0.0032,-0.198438 -0.0032,-0.198437 -0.672193,-1.175995 -0.672192,-1.175995 0.449487,-0.834648 0.449488,-0.834648 -0.178369,-0.710694 -0.178374,-0.710695 -0.702242,-0.266991 -0.702241,-0.266992 -1.473181,0.07791 -1.473182,0.07791 -0.07471,3.128378 -0.07471,3.128379 0.60388,-0.08567 0.603877,-0.08567 z m 0.109863,-2.47658 -0.151709,-0.395352 0.08707,-0.614555 0.08707,-0.614554 0.694341,-0.08051 0.69434,-0.08051 0.441992,0.441991 0.441992,0.441992 -0.372594,0.56456 -0.372594,0.564561 -0.699098,0.08386 -0.699096,0.08387 z m 48.152264,3.138039 0.433406,-0.661459 h 1.443008 1.443004 l 0.43341,0.661459 0.4334,0.661458 h 0.49874 0.49874 v -0.208566 -0.208565 l -1.27972,-2.900289 -1.27972,-2.900288 h -0.862164 -0.862164 l -1.16541,2.898727 -1.165407,2.898727 v 0.210127 0.210127 h 0.498736 0.498737 z m 0.95686,-1.4456 -0.390387,-0.246871 0.414977,-1.13814 0.414976,-1.138139 h 0.370205 0.370202 l 0.478155,1.015492 0.47816,1.015492 -0.31003,0.37357 -0.31004,0.373571 -0.562914,-0.0041 -0.562917,-0.0041 z" style="fill:#f299a8;stroke-width:0.26458332"/>
      <path id="path874" d="M -99.558929,60.255501 V 48.480652 h 38.227251 38.22725 l 0.147249,0.595312 0.147249,0.595313 -0.07606,11.112499 -0.07606,11.1125 -38.298437,0.06704 -38.298437,0.06704 z m 80.609722,11.596677 -0.17639,-0.176387 V 66.44986 61.223929 l 0.160599,-0.418512 0.1606,-0.418516 H 44.535001 107.8744 v 5.820834 5.820833 H 44.550792 -18.77282 Z m 54.327776,-4.438203 v -1.175012 l 0.277431,-0.17146 0.277432,-0.171463 -0.308367,-0.371557 -0.308366,-0.37156 0.109619,-1.721551 0.109622,-1.721554 h -1.070874 -1.070872 v 3.439583 3.439584 h 0.992187 0.992188 z m 14.997967,0.235141 -0.152519,-0.939866 0.377878,-0.145008 0.37788,-0.145005 1.23248,1.084874 1.232482,1.084874 h 1.021082 1.021083 l -0.0096,-0.330729 -0.0097,-0.33073 -0.959004,-0.727604 -0.959006,-0.727604 h -0.470945 -0.470948 l -0.16352,-0.264583 -0.163521,-0.264584 h 0.40004 0.400039 L 53.736776,65.644246 54.3928,65.345341 54.690517,64.62659 54.988234,63.907839 54.81046,63.199531 54.632684,62.491223 54.074879,62.10052 53.517074,61.709818 h -0.781 -0.781 l 0.619385,0.659305 0.619384,0.659304 v 0.837134 0.837134 l -0.622681,0.504216 -0.622679,0.504217 -0.675539,-0.169548 -0.675537,-0.16955 -0.209391,-0.309751 -0.209394,-0.309753 0.09559,-1.058333 0.09559,-1.058333 0.205603,-0.463021 0.205605,-0.463021 h -1.152787 -1.152787 v 3.439583 3.439584 h 1.026806 1.026805 l -0.152519,-0.939869 z m 14.655209,0.602525 -0.01984,-0.191823 -0.191823,-0.01984 -0.191823,-0.01984 -0.105833,0.3175 -0.105834,0.3175 0.3175,-0.105834 0.3175,-0.105833 z m 6.59474,0.193532 v -0.143812 l -1.614638,-2.965042 -1.614636,-2.965043 -0.269843,-0.330729 -0.269844,-0.330729 h -0.893643 -0.893646 v 0.381259 0.381262 l 0.264583,0.163521 0.264584,0.16352 v 0.778137 0.778134 h 0.387567 0.387564 l 0.273894,0.511773 0.273891,0.511773 v 0.518253 0.518253 l 0.408821,0.156879 0.408824,0.156879 0.388477,0.929762 0.38848,0.929762 h 1.054782 1.054783 z m 11.12185,-0.241795 -0.320024,-0.385606 0.08919,-3.054324 0.08919,-3.054323 -1.058333,2.64e-4 -1.058334,2.65e-4 v 3.439583 3.439584 h 1.289167 1.289169 l -0.320027,-0.385607 z m 2.514857,-0.03406 0.884388,-0.419672 0.393123,-0.599979 0.393123,-0.599983 0.172959,-0.921954 0.17296,-0.921951 -0.402375,-0.96302 -0.402376,-0.963019 -0.875816,-0.533972 -0.875818,-0.533969 -0.661459,0.0074 -0.661458,0.0074 0.727604,0.542853 0.727604,0.542851 v 2.239526 2.239524 l -0.700092,0.648824 -0.700096,0.648825 h 0.461672 0.461668 l 0.884389,-0.419669 z m 10.969543,0.0072 V 67.76403 l -0.264584,0.16352 -0.264583,0.163521 v 0.24897 0.248968 h 0.264583 0.264584 z m 6.597325,0.214053 -0.0173,-0.198437 -1.77176,-3.175 -1.771753,-3.175 -1.163135,-0.0834 -1.163135,-0.0834 0.43861,0.669401 0.438608,0.669401 v 0.670769 0.670766 h 0.387567 0.387564 l 0.297678,0.556215 0.297677,0.556218 -0.1289,0.492914 -0.128899,0.492913 0.489926,0.155496 0.489926,0.155495 0.329796,0.912043 0.3298,0.91204 h 1.13748 1.13747 l -0.0173,-0.198438 z m -36.556821,-2.235247 -0.08394,-0.251828 -0.257969,0.0059 -0.257969,0.0059 -0.08537,0.409922 -0.08537,0.409924 0.427281,-0.163962 0.427279,-0.163962 -0.08394,-0.251831 z m 31.015617,0.323993 0.394663,-0.249516 -0.304006,-0.304006 -0.304006,-0.304006 -0.298403,0.557572 -0.298405,0.557572 0.207748,-0.004 0.207746,-0.004 0.394663,-0.249513 z m -58.64462,-0.829893 0.644732,-0.293758 0.293758,-0.644732 0.293759,-0.644734 v -0.528743 -0.528744 l -0.649433,-0.64943 -0.64943,-0.649433 h -0.851897 -0.851898 l 0.619384,0.659305 0.619385,0.659304 v 0.838565 0.838566 l -0.7717,0.617481 -0.771702,0.617485 0.715155,0.0013 0.715153,0.0013 0.644734,-0.293759 z M -99.558929,38.698973 v -5.828738 h 3.444743 3.444744 l -0.07131,5.754687 -0.07131,5.754688 -3.373438,0.07405 -3.373437,0.07405 z m 14.15133,5.217616 -0.146252,-0.595312 0.07506,-5.159375 0.07506,-5.159375 3.638021,-0.07361 3.638021,-0.07361 v 5.409785 5.409785 l -0.1606,0.418515 -0.160599,0.418515 h -3.406235 -3.406235 z m 9.572975,0.418924 -0.176389,-0.176389 V 38.514679 32.870235 H 15.931694 107.8744 v 5.820833 5.820834 H 16.108084 -75.658235 Z M 7.5257945,40.659957 8.1501053,40.250893 8.4125561,39.560592 8.6750095,38.87029 8.5991852,36.597867 8.5233609,34.325443 H 7.8619026 7.2004443 l -0.1322917,2.275979 -0.1322916,2.275979 -0.3631248,0.436 -0.3631274,0.436001 H 5.3348619 4.4601177 L 4.0547364,39.344021 3.649355,38.938641 3.5064906,38.08725 3.3636235,37.23586 3.2976603,35.780652 3.2316943,34.325443 H 2.570236 1.9087777 l -0.081433,1.852084 -0.081433,1.852083 0.154006,0.830242 0.1540034,0.830243 0.675378,0.675375 0.6753754,0.675376 0.5749687,0.125096 0.5749687,0.125096 1.1734376,-0.111009 1.1734377,-0.111009 z m 57.9285015,0.164138 1.103854,-0.501185 0.429594,-0.655644 0.429593,-0.655644 0.132861,-0.887881 0.132858,-0.887881 -0.475682,-0.920768 -0.475681,-0.920767 -0.926041,-0.624003 -0.926042,-0.624002 -1.517729,0.106183 -1.517732,0.106182 -0.690221,0.644838 -0.690222,0.644837 -0.399708,0.768558 -0.399709,0.768559 0.148172,0.913072 0.148172,0.913073 0.429593,0.655644 0.429594,0.655644 1.103854,0.501185 1.103853,0.501185 h 0.661458 0.661458 z m -3.352811,-1.60386 -0.529167,-0.529167 V 37.753 36.814932 l 0.649433,-0.649432 0.649431,-0.649432 h 0.817803 0.817803 l 0.649431,0.649432 0.649433,0.649432 V 37.753 38.691068 l -0.529167,0.529167 -0.529167,0.529167 h -1.058333 -1.058333 z m 16.073025,1.192231 0.595725,-0.692573 V 39.123079 38.526265 L 78.243156,37.960513 77.716079,37.394761 76.523364,36.867167 75.330652,36.339574 V 36.07326 35.806946 l 0.432236,-0.241892 0.432237,-0.241891 0.956593,0.215747 0.956595,0.215747 0.207344,-0.207343 0.207343,-0.207343 -0.159268,-0.415046 -0.159269,-0.415045 -0.577009,-0.154751 -0.577011,-0.154752 -1.136504,-0.0036 -1.136507,-0.0036 -0.649431,0.649431 -0.649433,0.649432 v 0.391678 0.391677 l 0.263366,0.692704 0.263364,0.692703 1.474896,0.652269 1.474896,0.652269 -0.09076,0.458189 -0.09076,0.458189 -0.919895,-0.03212 -0.919895,-0.03212 -0.595313,-0.197174 -0.595312,-0.197174 v 0.527628 0.527629 l 0.330729,0.268509 0.330729,0.268508 0.529167,0.142896 0.529166,0.142896 1.057921,-0.09806 1.057918,-0.09806 z m 10.805966,0.271723 0.629275,-0.412315 0.170955,-0.681144 0.170955,-0.681144 -0.521523,-0.704571 -0.521525,-0.704572 -1.232731,-0.592742 -1.232731,-0.592742 v -0.254007 -0.254006 l 0.437918,-0.245071 0.437917,-0.245071 0.91672,0.253119 0.91672,0.253119 0.299009,-0.304559 0.299008,-0.30456 -0.624623,-0.510386 -0.624626,-0.510385 h -1.305631 -1.305632 l -0.64943,0.649431 -0.649433,0.649432 v 0.558588 0.558587 l 0.286988,0.53624 0.286986,0.53624 1.451274,0.641823 1.451274,0.641822 -0.09076,0.458189 -0.09076,0.458189 -0.919895,-0.03212 -0.919896,-0.03212 -0.595312,-0.197174 -0.595313,-0.197174 v 0.527628 0.527629 l 0.33073,0.268509 0.330729,0.268508 0.529166,0.14167 0.529167,0.141669 0.887881,-0.101105 0.887881,-0.101104 z M -4.0443472,40.555777 v -0.516542 l -1.6536458,-0.07877 -1.6536458,-0.07877 -0.066352,-2.248958 -0.066352,-2.248958 -0.1371256,-0.595313 -0.1371256,-0.595312 h -0.6281103 -0.6281102 l -0.1605994,0.418514 -0.1605995,0.418515 v 2.84468 2.84468 l 0.1763898,0.176388 0.1763871,0.176389 h 2.4694462 2.4694435 z m 20.3188592,-1.401688 0.07823,-1.785937 h 0.213974 0.213971 l 1.658839,1.866491 1.65884,1.86649 0.694785,-0.08055 0.694788,-0.08055 0.07715,-2.778125 0.07715,-2.778125 -0.152521,-0.611997 -0.152522,-0.611996 -0.718375,0.08283 -0.718376,0.08283 -0.07823,1.785938 -0.07823,1.785937 h -0.225258 -0.225245 l -1.641996,-1.85209 -1.641996,-1.852083 h -0.605904 -0.605901 l -0.1606,0.418514 -0.160599,0.418515 v 2.84468 2.84468 l 0.188537,0.188535 0.188534,0.188536 0.671361,-0.07829 0.671359,-0.07829 z m 13.175263,1.256771 0.433403,-0.661458 h 1.273588 1.273588 l 0.415774,0.415774 0.415774,0.415773 v 0.245685 0.245684 h 0.79375 0.79375 V 40.778821 40.485323 L 33.628787,37.669967 32.408171,34.85461 32.141183,34.523881 31.874192,34.193152 h -0.728956 -0.728957 l -0.273452,0.330729 -0.273452,0.330729 -1.081863,2.717297 -1.08186,2.717296 v 0.391558 0.391557 h 0.65536 0.655357 z m 1.014899,-2.07104 -0.134786,-0.351248 0.268835,-0.707085 0.268832,-0.707085 h 0.276805 0.276804 l 0.293693,0.644585 0.293693,0.644586 -0.158771,0.413748 -0.158769,0.413747 h -0.545774 -0.545775 z m 19.040795,2.313984 0.1606,-0.418515 v -0.904402 -0.904402 l 0.330729,0.0041 0.330729,0.0041 0.295188,0.194386 0.295185,0.194386 0.570087,1.12448 0.570087,1.124479 h 0.788371 0.788374 V 40.777393 40.48247 l -0.703117,-1.291857 -0.703117,-1.291857 0.438533,-0.484574 0.438534,-0.484574 V 36.252149 35.57469 L 52.600176,34.950067 52.0947,34.325443 h -2.074211 -2.074212 l -0.07528,3.026531 -0.07528,3.026531 0.13312,0.346907 0.13312,0.346906 h 0.641456 0.641453 z m 0.336989,-3.726625 -0.176389,-0.176388 v -0.617362 -0.617361 h 0.608541 0.608542 l 0.305117,0.305117 0.305115,0.305116 -0.261509,0.488634 -0.261508,0.488633 h -0.475761 -0.475761 z m 47.929636,3.483681 0.301378,-0.661458 h 1.309691 1.309687 l 0.41578,0.415774 0.41577,0.415773 v 0.245685 0.245684 h 0.79375 0.79375 v -0.362755 -0.362756 l -1.21572,-2.746099 -1.21571,-2.746098 -0.27189,-0.330729 -0.27189,-0.330729 h -0.728956 -0.728956 l -0.254817,0.330729 -0.254815,0.330729 -1.101664,2.778125 -1.101662,2.778125 0.0011,0.330729 0.0011,0.330729 h 0.751279 0.751282 l 0.301381,-0.661458 z m 0.964313,-2.000345 -0.173392,-0.280552 0.322167,-0.777781 0.322168,-0.77778 h 0.225689 0.22569 l 0.390111,0.754391 0.39011,0.754392 -0.30394,0.303942 -0.303942,0.303941 h -0.460634 -0.460637 z" style="fill:#ee7589;stroke-width:0.26458332"/>
      <path id="path872" d="M -99.558929,60.255501 V 48.480652 h 38.227251 38.22725 l 0.147249,0.595312 0.147249,0.595313 -0.07606,11.112499 -0.07606,11.1125 -38.298437,0.06704 -38.298437,0.06704 z m 80.758899,6.018925 0.07131,-5.755233 63.306724,-0.06669 63.306726,-0.06669 -0.0713,5.755233 -0.0713,5.755232 -63.306722,0.06669 -63.306724,0.06669 z m 54.016174,2.421802 0.410019,-0.15734 -0.155919,-1.137552 -0.155919,-1.137552 0.495142,-0.139906 0.495143,-0.139904 1.135169,0.01566 1.135165,0.01566 0.650772,-0.611368 0.650769,-0.611357 v -0.966091 -0.966092 l -0.682032,-0.641435 -0.682032,-0.641432 h -2.648247 -2.648246 l -0.04316,3.505782 -0.04316,3.505783 0.264583,0.111349 0.264583,0.111353 0.573672,0.02088 0.573675,0.02088 0.41002,-0.15734 z m 0.269721,-3.64885 -0.140681,-0.366604 0.08284,-1.15475 0.08284,-1.154748 0.82671,-0.08043 0.826709,-0.08044 0.430061,0.430064 0.430062,0.430062 v 0.733843 0.733843 l -0.483854,0.437883 -0.483854,0.437883 h -0.715076 -0.715074 z m 14.81814,3.646313 0.416632,-0.159877 -0.158943,-0.63328 -0.158943,-0.633283 0.155389,-0.40494 0.15539,-0.404939 1.470941,1.198099 1.47094,1.198097 h 0.900131 0.900131 l 0.19449,-0.31469 0.19449,-0.314693 -1.204368,-1.07437 -1.204364,-1.074372 0.760907,-0.615437 0.760907,-0.615436 v -0.992087 -0.99209 l -0.682032,-0.641435 -0.682032,-0.641432 h -2.648247 -2.648246 l -0.04316,3.505782 -0.04316,3.505783 0.264584,0.111349 0.264583,0.111353 0.573672,0.02088 0.573675,0.02088 0.416631,-0.159877 z m 0.26311,-3.646313 -0.140682,-0.366604 0.08284,-1.15475 0.08284,-1.154748 0.751002,-0.08598 0.751003,-0.08598 0.505767,0.457713 0.50577,0.457716 v 0.711735 0.711734 l -0.483854,0.437883 -0.483854,0.437883 h -0.715076 -0.715074 z m 21.042357,3.55772 0.379862,-0.240366 -0.286424,-0.350893 -0.286425,-0.350896 -1.502317,-2.778125 -1.502318,-2.778125 -0.427627,-0.330729 -0.427628,-0.330729 h -0.727564 -0.727567 l -0.149043,0.24116 -0.149045,0.241157 0.462547,0.805944 0.462548,0.805942 -1.184042,2.326336 -1.184045,2.326336 -0.09316,0.198437 -0.09316,0.198438 h 0.496501 0.496501 l 0.253151,-0.859896 0.253153,-0.859896 h 1.451644 1.451642 l 0.37514,0.79375 0.375139,0.79375 0.289883,0.194387 0.289885,0.194384 h 0.661459 0.661458 z m -5.274654,-2.90489 v -0.242945 l 0.1606,-0.418513 0.160599,-0.418515 h 0.359259 0.359257 l 0.273894,0.511773 0.273891,0.511773 v 0.149685 0.149685 h -0.79375 -0.79375 z m 17.929408,2.891076 0.86378,-0.0024 0.948226,-0.868985 0.948225,-0.868984 0.145089,-1.287232 0.14509,-1.287235 -0.451789,-0.838925 -0.451792,-0.838922 -0.843846,-0.502934 -0.843849,-0.502933 -2.204564,-0.0076 -2.204567,-0.0076 -0.04439,3.505782 -0.04439,3.505782 0.264583,0.126371 0.264584,0.12637 1.322916,-0.124124 1.322917,-0.124124 0.863783,-0.0024 z m -1.676379,-0.882044 -0.134528,-0.350576 0.07669,-2.493695 0.07669,-2.493693 0.702022,-0.08125 0.702019,-0.08125 0.42246,0.603141 0.422457,0.603144 v 1.793214 1.793211 l -0.529166,0.529166 -0.529167,0.529167 h -0.537469 -0.537472 z m 20.248953,0.891847 0.38635,-0.24438 -0.41187,-0.479174 -0.41188,-0.479173 -1.49484,-2.815585 -1.494852,-2.815585 -0.419502,-0.160977 -0.419499,-0.160978 h -0.728015 -0.728014 l -0.167722,0.167722 -0.167722,0.167722 0.520499,0.661709 0.520501,0.66171 v 0.245052 0.245054 l -1.11584,2.298952 -1.115841,2.298954 -0.09683,0.198437 -0.09683,0.198438 h 0.551217 0.551215 v -0.608542 -0.608542 l 0.3175,-0.3175 0.3175,-0.3175 h 1.283502 1.283499 l 0.360044,0.859896 0.36004,0.859896 0.19972,0.198438 0.19972,0.198437 0.81581,-0.004 0.81579,-0.004 0.38636,-0.244377 z m -5.281149,-2.900879 v -0.242945 l 0.1606,-0.418513 0.160599,-0.418515 h 0.359259 0.359257 l 0.264583,0.494379 0.264583,0.494377 -0.167079,0.167081 -0.167079,0.167079 h -0.617363 -0.61736 z M -99.558929,38.698973 v -5.828738 h 3.444743 3.444744 l -0.07131,5.754687 -0.07131,5.754688 -3.373438,0.07405 -3.373437,0.07405 z m 14.471616,5.644267 -0.184116,-0.184116 v -5.644445 -5.644444 h 3.444743 3.444743 l -0.07131,5.754687 -0.0713,5.754688 -3.189321,0.07387 -3.189321,0.07387 z m 9.498601,-0.05478 -0.138095,-0.223443 -0.03046,-5.531245 -0.03046,-5.531244 91.831068,-0.06652 91.831069,-0.06652 v 5.821211 5.82121 H 16.211893 -75.450616 Z m 71.5443648,-3.348432 0.3293771,-0.396875 -0.3189631,-0.384328 -0.3189631,-0.384327 -1.4993726,-0.07869 -1.4993699,-0.07869 -0.1322917,-2.645833 -0.1322916,-2.645834 h -0.79375 -0.79375 l -0.07498,3.159597 -0.074983,3.159597 0.1328235,0.346132 0.1328235,0.346133 h 2.357157 2.357157 z M 7.1842835,41.031539 7.854481,40.726177 8.2984572,40.048586 8.7424306,39.370996 8.8648824,37.462924 8.9873369,35.554853 8.8164531,34.874002 8.645572,34.193152 H 7.8851701 7.1247682 l -0.1605995,0.418514 -0.1605994,0.418515 v 1.947732 1.947733 L 6.2155302,39.337524 5.6274937,39.749402 H 5.2077667 4.7880423 L 4.2744516,39.374667 3.760861,38.999933 3.6285693,36.662688 3.4962777,34.325443 2.6363819,34.242534 1.776486,34.159624 v 2.626916 2.626916 l 0.5657109,0.719183 0.5657083,0.719185 0.5587709,0.225768 0.5587682,0.225768 1.2443222,0.01677 1.2443195,0.01677 z m 9.0902285,-1.612867 0.07823,-1.785937 0.31864,0.0177 0.31864,0.0177 1.556079,1.848611 1.556078,1.84861 0.69288,-0.08037 0.69288,-0.08037 v -3.439583 -3.439584 l -0.859896,-0.08291 -0.859896,-0.08291 v 1.736556 1.736555 l -0.330729,-0.0156 -0.330729,-0.0156 -1.430139,-1.717888 -1.430136,-1.717888 -0.818822,0.07985 -0.81882,0.07984 -0.07498,3.159597 -0.07498,3.159597 0.139624,0.363852 0.139623,0.363851 0.729107,-0.08387 0.729109,-0.08386 z m 13.175263,1.256771 0.433403,-0.661458 h 1.394349 1.394349 l 0.433403,0.661458 0.433406,0.661459 h 0.639744 0.639744 l 0.159036,-0.257327 0.159036,-0.257327 -1.418712,-3.248402 -1.418714,-3.248403 h -1.154504 -1.154507 l -1.278821,3.171024 -1.278819,3.171024 0.128437,0.334706 0.128439,0.334705 h 0.663663 0.663662 z m 1.166294,-2.663227 v -0.414269 l 0.297656,-0.556176 0.297656,-0.556176 0.354426,0.639716 0.354428,0.639716 0.0094,0.330729 0.0094,0.330729 h -0.661459 -0.661458 z m 19.05,1.92913 0.132291,-1.263263 0.198438,0.0065 0.198437,0.0065 h 0.260125 0.260128 l 0.670372,1.322917 0.670372,1.322917 h 0.789295 0.789292 v -0.539708 -0.539707 l -0.547378,-1.072947 -0.547376,-1.072948 0.43801,-0.923037 0.43801,-0.923037 -0.323797,-0.781711 -0.323795,-0.781712 -0.475485,-0.254472 -0.475485,-0.254471 h -2.001769 -2.001769 v 3.395486 3.395486 l 0.188537,0.188536 0.188534,0.188535 0.671362,-0.07829 0.671359,-0.07829 z m 0.04774,-3.694971 0.08455,-0.592609 0.396875,-0.06852 0.396875,-0.06852 0.369284,0.237549 0.369282,0.237549 -0.162541,0.423578 -0.162542,0.423578 h -0.688165 -0.688163 z m 16.412257,4.4161 0.693251,-0.516198 0.419208,-0.702282 0.419206,-0.702281 -9.9e-4,-1.01751 -9.89e-4,-1.017511 -0.533644,-0.875279 -0.533643,-0.875279 -1.119013,-0.507973 -1.119013,-0.507972 h -0.661458 -0.661458 l -1.119013,0.507972 -1.119013,0.507973 -0.533643,0.875279 -0.533644,0.875279 -0.0011,1.027104 -0.0011,1.027103 0.530815,0.858877 0.530815,0.858877 0.858247,0.437973 0.858247,0.437973 1.467231,-0.08796 1.467229,-0.08796 0.69325,-0.516199 z M 62.221751,39.09997 61.572318,38.450538 v -0.637804 -0.637803 l 0.548371,-0.69714 0.54837,-0.697139 h 1.019926 1.019926 l 0.56905,0.723428 0.569048,0.723429 -0.153768,0.797925 -0.153765,0.797926 -0.557684,0.463021 -0.557681,0.463021 h -0.776464 -0.776465 z m 16.063272,1.454603 0.485212,-0.599211 v -0.85061 -0.850609 L 78.174922,37.704216 77.57961,37.154289 76.587422,36.745555 75.595235,36.33682 v -0.440862 -0.440862 l 1.455208,0.181816 1.455208,0.181817 V 35.30292 34.787112 l -0.421232,-0.349593 -0.421235,-0.349592 -1.408999,-0.01353 -1.408999,-0.01353 -0.683308,0.641433 -0.68331,0.641433 v 0.856401 0.856402 l 0.814052,0.684978 0.814049,0.684978 h 0.347262 0.347263 l 0.608764,0.492946 0.608762,0.492946 -0.515001,0.275621 -0.515004,0.275622 -1.053071,-0.362029 -1.05307,-0.362029 -0.226814,0.226816 -0.226817,0.226816 0.0933,0.484479 0.0933,0.484479 0.659114,0.34856 0.659115,0.34856 1.433017,-0.102744 1.433018,-0.102744 z m 10.520455,0.395239 0.748549,-0.387089 0.164354,-0.4283 0.164354,-0.428301 V 39.125175 38.544228 L 89.455009,37.933563 89.027281,37.322897 87.867509,36.825761 86.707735,36.328624 V 35.89186 35.455096 l 1.455208,0.181816 1.455208,0.181817 V 35.30292 34.787112 l -0.330729,-0.273304 -0.330729,-0.273303 -0.974942,-0.182179 -0.974942,-0.182179 -0.945319,0.311984 -0.945317,0.311983 -0.262554,0.490583 -0.262551,0.490583 v 0.765024 0.765023 l 0.598924,0.562659 0.598922,0.56266 0.988578,0.413053 0.988576,0.413054 v 0.371276 0.371275 l -0.330729,0.116065 -0.330729,0.116064 -1.140831,-0.337626 -1.140833,-0.337626 -0.144245,0.375902 -0.144248,0.375902 0.154736,0.403232 0.154733,0.403231 0.601176,0.241456 0.601178,0.241456 1.005327,0.01677 1.005327,0.01677 z m 8.906796,-0.274369 0.433403,-0.661458 h 1.394349 1.394344 l 0.43341,0.661458 0.4334,0.661459 h 0.66367 0.66366 l 0.12906,-0.336335 0.12907,-0.336335 -1.40781,-3.169394 -1.4078,-3.169395 h -1.159364 -1.159359 l -1.278821,3.171024 -1.278819,3.171024 0.128437,0.334706 0.128439,0.334705 h 0.663663 0.663662 z m 1.166294,-2.663227 v -0.414269 l 0.297656,-0.556176 0.297656,-0.556176 0.354426,0.639716 0.354424,0.639716 0.009,0.330729 0.009,0.330729 h -0.661454 -0.661458 z" style="fill:#fbc904;stroke-width:0.26458332"/>
      <path id="path870" d="m -18.80003,66.274426 0.07131,-5.755233 63.306724,-0.06669 63.306726,-0.06669 -0.0713,5.755233 -0.0713,5.755232 -63.306722,0.06669 -63.306724,0.06669 z m 54.016174,2.421802 0.410019,-0.15734 -0.155919,-1.137552 -0.155919,-1.137552 0.495142,-0.139906 0.495143,-0.139904 1.135169,0.01566 1.135165,0.01566 0.650772,-0.611368 0.650769,-0.611357 v -0.966091 -0.966092 l -0.682032,-0.641435 -0.682032,-0.641432 h -2.648247 -2.648246 l -0.04316,3.505782 -0.04316,3.505783 0.264583,0.111349 0.264583,0.111353 0.573672,0.02088 0.573675,0.02088 0.41002,-0.15734 z m 0.269721,-3.64885 -0.140681,-0.366604 0.08284,-1.15475 0.08284,-1.154748 0.82671,-0.08043 0.826709,-0.08044 0.430061,0.430064 0.430062,0.430062 v 0.733843 0.733843 l -0.483854,0.437883 -0.483854,0.437883 h -0.715076 -0.715074 z m 14.81814,3.646313 0.416632,-0.159877 -0.158943,-0.63328 -0.158943,-0.633283 0.155389,-0.40494 0.15539,-0.404939 1.470941,1.198099 1.47094,1.198097 h 0.900131 0.900131 l 0.19449,-0.31469 0.19449,-0.314693 -1.204368,-1.07437 -1.204364,-1.074372 0.760907,-0.615437 0.760907,-0.615436 v -0.992087 -0.99209 l -0.682032,-0.641435 -0.682032,-0.641432 h -2.648247 -2.648246 l -0.04316,3.505782 -0.04316,3.505783 0.264584,0.111349 0.264583,0.111353 0.573672,0.02088 0.573675,0.02088 0.416631,-0.159877 z m 0.26311,-3.646313 -0.140682,-0.366604 0.08284,-1.15475 0.08284,-1.154748 0.751002,-0.08598 0.751003,-0.08598 0.505767,0.457713 0.50577,0.457716 v 0.711735 0.711734 l -0.483854,0.437883 -0.483854,0.437883 h -0.715076 -0.715074 z m 21.042357,3.55772 0.379862,-0.240366 -0.286424,-0.350893 -0.286425,-0.350896 -1.502317,-2.778125 -1.502318,-2.778125 -0.427627,-0.330729 -0.427628,-0.330729 h -0.727564 -0.727567 l -0.149043,0.24116 -0.149045,0.241157 0.462547,0.805944 0.462548,0.805942 -1.184042,2.326336 -1.184045,2.326336 -0.09316,0.198437 -0.09316,0.198438 h 0.496501 0.496501 l 0.253151,-0.859896 0.253153,-0.859896 h 1.451644 1.451642 l 0.37514,0.79375 0.375139,0.79375 0.289883,0.194387 0.289885,0.194384 h 0.661459 0.661458 z m -5.274654,-2.90489 v -0.242945 l 0.1606,-0.418513 0.160599,-0.418515 h 0.359259 0.359257 l 0.273894,0.511773 0.273891,0.511773 v 0.149685 0.149685 h -0.79375 -0.79375 z m 17.929408,2.891076 0.86378,-0.0024 0.948226,-0.868985 0.948225,-0.868984 0.145089,-1.287232 0.14509,-1.287235 -0.451789,-0.838925 -0.451792,-0.838922 -0.843846,-0.502934 -0.843849,-0.502933 -2.204564,-0.0076 -2.204567,-0.0076 -0.04439,3.505782 -0.04439,3.505782 0.264583,0.126371 0.264584,0.12637 1.322916,-0.124124 1.322917,-0.124124 0.863783,-0.0024 z m -1.676379,-0.882044 -0.134528,-0.350576 0.07669,-2.493695 0.07669,-2.493693 0.702022,-0.08125 0.702019,-0.08125 0.42246,0.603141 0.422457,0.603144 v 1.793214 1.793211 l -0.529166,0.529166 -0.529167,0.529167 h -0.537469 -0.537472 z m 20.248953,0.891847 0.38635,-0.24438 -0.41187,-0.479174 -0.41188,-0.479173 -1.49484,-2.815585 -1.494852,-2.815585 -0.419502,-0.160977 -0.419499,-0.160978 h -0.728015 -0.728014 l -0.167722,0.167722 -0.167722,0.167722 0.520499,0.661709 0.520501,0.66171 v 0.245052 0.245054 l -1.11584,2.298952 -1.115841,2.298954 -0.09683,0.198437 -0.09683,0.198438 h 0.551217 0.551215 v -0.608542 -0.608542 l 0.3175,-0.3175 0.3175,-0.3175 h 1.283502 1.283499 l 0.360044,0.859896 0.36004,0.859896 0.19972,0.198438 0.19972,0.198437 0.81581,-0.004 0.81579,-0.004 0.38636,-0.244377 z m -5.281149,-2.900879 v -0.242945 l 0.1606,-0.418513 0.160599,-0.418515 h 0.359259 0.359257 l 0.264583,0.494379 0.264583,0.494377 -0.167079,0.167081 -0.167079,0.167079 h -0.617363 -0.61736 z m -190.323608,1.124887 -0.176389,-0.176387 v -6.565445 -6.565446 l 0.595313,-0.145471 0.595312,-0.14547 30.174221,0.07428 30.17422,0.07428 0.727692,0.476858 0.727694,0.476859 0.260715,0.685732 0.260715,0.685732 -0.293714,0.889961 -0.293714,0.889962 -0.574124,0.328698 -0.574122,0.328698 -27.516667,0.132292 -27.516666,0.132291 -0.07333,4.089869 -0.07333,4.089868 -0.323541,0.20556 -0.323542,0.205558 -2.800173,0.0041 -2.800174,0.0041 z m 53.902084,-10.753169 0.293401,-0.478517 -0.515553,-0.382814 -0.515554,-0.382814 -23.135836,0.06758 -23.135834,0.06758 -0.269364,0.427058 -0.269365,0.427058 0.166645,0.434269 0.166644,0.434269 23.460707,-0.06758 23.460704,-0.06758 z m -44.52972,10.561304 -0.305625,-0.368255 0.07479,-3.137474 0.07479,-3.137475 h 1.852084 1.852083 l 0.07479,3.137475 0.07479,3.137474 -0.305624,0.368255 -0.305625,0.368255 h -1.390414 -1.390415 z m 6.648469,0.151405 -0.339236,-0.221771 0.07465,-3.286419 0.07465,-3.286419 4.445664,-0.07261 4.445661,-0.0726 0.779859,0.779857 0.779857,0.779857 v 0.793803 0.793802 l -0.68386,0.812721 -0.683858,0.812721 0.585115,0.94674 0.585118,0.946737 -0.258215,0.258215 -0.258214,0.258215 -1.816987,-0.07914 -1.816983,-0.07915 -0.753962,-1.124479 -0.753962,-1.124479 h -0.374346 -0.374348 l -0.12703,0.595312 -0.127032,0.595313 -0.07902,0.529166 -0.07902,0.529167 -1.452637,0.06861 -1.452637,0.0686 z m 6.133124,-4.362709 0.291529,-0.478518 -0.513591,-0.381378 -0.51359,-0.381379 h -0.710782 -0.710785 l -0.318839,0.384178 -0.31884,0.384178 0.176463,0.555987 0.176464,0.555985 1.075219,-0.08027 1.075221,-0.08027 z m 6.685627,4.403169 -0.17639,-0.176387 v -3.402206 -3.402205 l 4.163835,0.07287 4.163838,0.07286 0.09553,0.497462 0.09553,0.497464 -0.356764,0.226089 -0.356762,0.22609 -1.918229,0.004 -1.918229,0.0041 v 0.529166 0.529167 l 1.918229,0.004 1.918229,0.004 0.356762,0.226089 0.356764,0.22609 -0.09473,0.497464 -0.09473,0.497461 -2.114111,0.132292 -2.114113,0.132292 v 0.529166 0.529167 l 2.290611,0.07609 2.290615,0.07609 0.161348,0.420465 0.161348,0.420468 -0.301546,0.363339 -0.301545,0.363339 h -4.024548 -4.024548 l -0.176387,-0.17639 z m 11.25361,-0.14111 -0.3175,-0.3175 v -2.83586 -2.835862 l 0.160599,-0.418513 0.1606,-0.418515 h 1.823775 1.823776 v 2.359609 2.359613 l 0.160599,0.418512 0.1606,0.418516 h 1.801728 1.801725 l 0.118589,0.330729 0.118586,0.330729 -0.238138,0.463021 -0.238141,0.463021 h -3.509648 -3.50965 z m 9.237242,-0.04354 -0.311613,-0.375473 0.07479,-3.137474 0.07479,-3.137475 h 1.852083 1.852084 l 0.132291,2.645834 0.132292,2.645833 1.852083,0.132292 1.852084,0.132291 v 0.661459 0.661458 l -3.599635,0.07336 -3.599635,0.07336 z m 9.086122,0.02762 -0.137703,-0.358846 0.07498,-3.159599 0.07498,-3.159596 1.793703,-0.07841 1.793703,-0.07841 -0.07391,3.517995 -0.07391,3.517995 -1.65707,0.07886 -1.657072,0.07886 z m -65.20753,-27.969094 v -5.828738 h 3.444743 3.444744 l -0.07131,5.754687 -0.07131,5.754688 -3.373438,0.07405 -3.373437,0.07405 z m 14.471616,5.644267 -0.184116,-0.184116 v -5.644445 -5.644444 h 3.444743 3.444743 l -0.07131,5.754687 -0.0713,5.754688 -3.189321,0.07387 -3.189321,0.07387 z m 9.498601,-0.05478 -0.138095,-0.223443 -0.03046,-5.531245 -0.03046,-5.531244 91.831068,-0.06652 91.831069,-0.06652 v 5.821211 5.82121 H 16.211893 -75.450616 Z m 71.5443648,-3.348432 0.3293771,-0.396875 -0.3189631,-0.384328 -0.3189631,-0.384327 -1.4993726,-0.07869 -1.4993699,-0.07869 -0.1322917,-2.645833 -0.1322916,-2.645834 h -0.79375 -0.79375 l -0.07498,3.159597 -0.074983,3.159597 0.1328235,0.346132 0.1328235,0.346133 h 2.357157 2.357157 z M 7.1842835,41.031539 7.854481,40.726177 8.2984572,40.048586 8.7424306,39.370996 8.8648824,37.462924 8.9873369,35.554853 8.8164531,34.874002 8.645572,34.193152 H 7.8851701 7.1247682 l -0.1605995,0.418514 -0.1605994,0.418515 v 1.947732 1.947733 L 6.2155302,39.337524 5.6274937,39.749402 H 5.2077667 4.7880423 L 4.2744516,39.374667 3.760861,38.999933 3.6285693,36.662688 3.4962777,34.325443 2.6363819,34.242534 1.776486,34.159624 v 2.626916 2.626916 l 0.5657109,0.719183 0.5657083,0.719185 0.5587709,0.225768 0.5587682,0.225768 1.2443222,0.01677 1.2443195,0.01677 z m 9.0902285,-1.612867 0.07823,-1.785937 0.31864,0.0177 0.31864,0.0177 1.556079,1.848611 1.556078,1.84861 0.69288,-0.08037 0.69288,-0.08037 v -3.439583 -3.439584 l -0.859896,-0.08291 -0.859896,-0.08291 v 1.736556 1.736555 l -0.330729,-0.0156 -0.330729,-0.0156 -1.430139,-1.717888 -1.430136,-1.717888 -0.818822,0.07985 -0.81882,0.07984 -0.07498,3.159597 -0.07498,3.159597 0.139624,0.363852 0.139623,0.363851 0.729107,-0.08387 0.729109,-0.08386 z m 13.175263,1.256771 0.433403,-0.661458 h 1.394349 1.394349 l 0.433403,0.661458 0.433406,0.661459 h 0.639744 0.639744 l 0.159036,-0.257327 0.159036,-0.257327 -1.418712,-3.248402 -1.418714,-3.248403 h -1.154504 -1.154507 l -1.278821,3.171024 -1.278819,3.171024 0.128437,0.334706 0.128439,0.334705 h 0.663663 0.663662 z m 1.166294,-2.663227 v -0.414269 l 0.297656,-0.556176 0.297656,-0.556176 0.354426,0.639716 0.354428,0.639716 0.0094,0.330729 0.0094,0.330729 h -0.661459 -0.661458 z m 19.05,1.92913 0.132291,-1.263263 0.198438,0.0065 0.198437,0.0065 h 0.260125 0.260128 l 0.670372,1.322917 0.670372,1.322917 h 0.789295 0.789292 v -0.539708 -0.539707 l -0.547378,-1.072947 -0.547376,-1.072948 0.43801,-0.923037 0.43801,-0.923037 -0.323797,-0.781711 -0.323795,-0.781712 -0.475485,-0.254472 -0.475485,-0.254471 h -2.001769 -2.001769 v 3.395486 3.395486 l 0.188537,0.188536 0.188534,0.188535 0.671362,-0.07829 0.671359,-0.07829 z m 0.04774,-3.694971 0.08455,-0.592609 0.396875,-0.06852 0.396875,-0.06852 0.369284,0.237549 0.369282,0.237549 -0.162541,0.423578 -0.162542,0.423578 h -0.688165 -0.688163 z m 16.412257,4.4161 0.693251,-0.516198 0.419208,-0.702282 0.419206,-0.702281 -9.9e-4,-1.01751 -9.89e-4,-1.017511 -0.533644,-0.875279 -0.533643,-0.875279 -1.119013,-0.507973 -1.119013,-0.507972 h -0.661458 -0.661458 l -1.119013,0.507972 -1.119013,0.507973 -0.533643,0.875279 -0.533644,0.875279 -0.0011,1.027104 -0.0011,1.027103 0.530815,0.858877 0.530815,0.858877 0.858247,0.437973 0.858247,0.437973 1.467231,-0.08796 1.467229,-0.08796 0.69325,-0.516199 z M 62.221751,39.09997 61.572318,38.450538 v -0.637804 -0.637803 l 0.548371,-0.69714 0.54837,-0.697139 h 1.019926 1.019926 l 0.56905,0.723428 0.569048,0.723429 -0.153768,0.797925 -0.153765,0.797926 -0.557684,0.463021 -0.557681,0.463021 h -0.776464 -0.776465 z m 16.063272,1.454603 0.485212,-0.599211 v -0.85061 -0.850609 L 78.174922,37.704216 77.57961,37.154289 76.587422,36.745555 75.595235,36.33682 v -0.440862 -0.440862 l 1.455208,0.181816 1.455208,0.181817 V 35.30292 34.787112 l -0.421232,-0.349593 -0.421235,-0.349592 -1.408999,-0.01353 -1.408999,-0.01353 -0.683308,0.641433 -0.68331,0.641433 v 0.856401 0.856402 l 0.814052,0.684978 0.814049,0.684978 h 0.347262 0.347263 l 0.608764,0.492946 0.608762,0.492946 -0.515001,0.275621 -0.515004,0.275622 -1.053071,-0.362029 -1.05307,-0.362029 -0.226814,0.226816 -0.226817,0.226816 0.0933,0.484479 0.0933,0.484479 0.659114,0.34856 0.659115,0.34856 1.433017,-0.102744 1.433018,-0.102744 z m 10.520455,0.395239 0.748549,-0.387089 0.164354,-0.4283 0.164354,-0.428301 V 39.125175 38.544228 L 89.455009,37.933563 89.027281,37.322897 87.867509,36.825761 86.707735,36.328624 V 35.89186 35.455096 l 1.455208,0.181816 1.455208,0.181817 V 35.30292 34.787112 l -0.330729,-0.273304 -0.330729,-0.273303 -0.974942,-0.182179 -0.974942,-0.182179 -0.945319,0.311984 -0.945317,0.311983 -0.262554,0.490583 -0.262551,0.490583 v 0.765024 0.765023 l 0.598924,0.562659 0.598922,0.56266 0.988578,0.413053 0.988576,0.413054 v 0.371276 0.371275 l -0.330729,0.116065 -0.330729,0.116064 -1.140831,-0.337626 -1.140833,-0.337626 -0.144245,0.375902 -0.144248,0.375902 0.154736,0.403232 0.154733,0.403231 0.601176,0.241456 0.601178,0.241456 1.005327,0.01677 1.005327,0.01677 z m 8.906796,-0.274369 0.433403,-0.661458 h 1.394349 1.394344 l 0.43341,0.661458 0.4334,0.661459 h 0.66367 0.66366 l 0.12906,-0.336335 0.12907,-0.336335 -1.40781,-3.169394 -1.4078,-3.169395 h -1.159364 -1.159359 l -1.278821,3.171024 -1.278819,3.171024 0.128437,0.334706 0.128439,0.334705 h 0.663663 0.663662 z m 1.166294,-2.663227 v -0.414269 l 0.297656,-0.556176 0.297656,-0.556176 0.354426,0.639716 0.354424,0.639716 0.009,0.330729 0.009,0.330729 h -0.661454 -0.661458 z" style="fill:#ea4f6b;stroke-width:0.26458332"/>
      <path id="path868" d="m -18.850221,66.335161 -0.02871,-5.428824 0.339691,-0.127916 0.339688,-0.127913 62.970832,-0.06566 62.97083,-0.06566 v 5.622396 5.622396 H 44.460299 -18.821509 Z m 54.576344,1.19549 -0.156678,-1.322916 h 1.512413 1.512417 l 0.773396,-0.773399 0.773398,-0.773395 v -0.834456 -0.834456 l -0.782463,-0.782463 -0.782463,-0.782463 -2.855558,0.07521 -2.855558,0.07521 0.115747,0.396875 0.115748,0.396875 0.107259,2.418885 0.107257,2.418881 -0.301387,0.563147 -0.301387,0.563148 0.160142,0.259117 0.160142,0.259114 h 1.427128 1.427128 z m -0.08297,-3.712469 V 62.48696 l 0.351248,-0.134787 0.351247,-0.134786 0.707086,0.268835 0.707086,0.268833 v 0.879673 0.879673 l -0.3175,0.3175 -0.3175,0.3175 h -0.740834 -0.740833 z m 15.173796,3.920408 -0.178292,-1.114975 1.400352,1.114975 1.400352,1.114978 h 1.288354 1.288355 v -0.37493 -0.374934 l -1.10629,-0.918945 -1.106289,-0.918943 0.709414,-0.843092 0.709415,-0.84309 v -0.793802 -0.793803 l -0.782463,-0.782463 -0.782463,-0.782463 -2.855558,0.07521 -2.855558,0.07521 0.115747,0.396875 0.115748,0.396875 0.107259,2.418885 0.107257,2.418881 -0.301387,0.563147 -0.301387,0.563148 0.160142,0.259117 0.160141,0.259114 h 1.44272 1.442723 z m -0.09255,-3.920408 V 62.48696 l 0.351248,-0.134787 0.351247,-0.134786 0.707086,0.268835 0.707086,0.268833 v 0.879673 0.879673 l -0.3175,0.3175 -0.3175,0.3175 h -0.740834 -0.740833 z m 14.775873,4.241636 0.0915,-0.661458 0.271627,-0.330729 0.271629,-0.33073 h 1.010933 1.010933 l 0.41188,0.588039 0.411877,0.588037 v 0.470297 0.470294 h 1.5875 1.5875 V 68.50961 68.165651 l -0.325239,-0.325239 -0.32524,-0.325239 -1.614535,-2.968823 -1.614537,-2.968824 -1.367515,-0.07997 -1.367518,-0.07997 v 0.378306 0.378304 l 0.396875,0.329377 0.396875,0.329377 v 0.512765 0.512766 l -1.153049,2.358733 -1.153051,2.358732 0.149976,0.149974 0.149974,0.149976 0.540054,-0.07731 0.540055,-0.07731 z m 1.232712,-2.379154 -0.162224,-0.262488 0.23263,-0.41569 0.232632,-0.415689 0.333632,0.402005 0.333634,0.402003 -0.170685,0.276174 -0.170683,0.276172 h -0.233355 -0.233354 z m 18.943434,2.572318 0.899022,-0.600588 0.476874,-0.920766 0.476877,-0.920768 -0.122322,-1.002268 -0.122322,-1.002269 -0.435075,-0.664008 -0.435076,-0.664009 -0.845518,-0.52078 -0.845521,-0.520779 -2.38125,0.07039 -2.38125,0.07039 0.126272,0.396875 0.126275,0.396875 0.08942,2.564845 0.08942,2.564844 -0.272529,0.509222 -0.272526,0.50922 0.167079,0.167082 0.167079,0.167079 h 2.298025 2.298026 z m -2.937436,-3.087965 v -2.63022 l 0.213209,-0.131771 0.213212,-0.13177 0.646684,0.321498 0.646686,0.321498 0.07773,2.068697 0.07773,2.068698 -0.30856,0.371795 -0.308562,0.371793 H 83.36805 82.738988 Z m 13.982123,2.894801 0.0915,-0.661458 0.271626,-0.330729 0.27163,-0.33073 h 1.010933 1.010933 l 0.41188,0.588039 0.411873,0.588037 v 0.470297 0.470294 h 1.4396 1.43959 l 0.13128,-0.21241 0.13127,-0.212408 -0.74146,-1.176655 -0.74146,-1.176652 -1.24014,-2.315104 -1.240139,-2.315104 H 98.086577 96.79313 l -0.141666,0.229222 -0.141668,0.229224 0.522927,0.473242 0.522928,0.473244 v 0.512276 0.512278 l -1.190625,2.30527 -1.190625,2.305269 v 0.201729 0.201726 l 0.727604,-0.08372 0.727605,-0.08372 z m 1.232712,-2.379154 -0.162224,-0.262488 0.246951,-0.441278 0.246952,-0.44128 0.287224,0.536686 0.287226,0.536687 -0.167079,0.167081 -0.167079,0.167079 h -0.204872 -0.204872 z m -190.721777,1.144431 -0.176389,-0.176387 v -6.565445 -6.565446 l 0.595313,-0.145471 0.595312,-0.14547 30.174221,0.07428 30.17422,0.07428 0.727692,0.476858 0.727694,0.476859 0.260715,0.685732 0.260715,0.685732 -0.293714,0.889961 -0.293714,0.889962 -0.574124,0.328698 -0.574122,0.328698 -27.516667,0.132292 -27.516666,0.132291 -0.07333,4.089869 -0.07333,4.089868 -0.323541,0.20556 -0.323542,0.205558 -2.800173,0.0041 -2.800174,0.0041 z m 53.902084,-10.753169 0.293401,-0.478517 -0.515553,-0.382814 -0.515554,-0.382814 -23.135836,0.06758 -23.135834,0.06758 -0.269364,0.427058 -0.269365,0.427058 0.166645,0.434269 0.166644,0.434269 23.460707,-0.06758 23.460704,-0.06758 z m -44.52972,10.561304 -0.305625,-0.368255 0.07479,-3.137474 0.07479,-3.137475 h 1.852084 1.852083 l 0.07479,3.137475 0.07479,3.137474 -0.305624,0.368255 -0.305625,0.368255 h -1.390414 -1.390415 z m 6.648469,0.151405 -0.339236,-0.221771 0.07465,-3.286419 0.07465,-3.286419 4.445664,-0.07261 4.445661,-0.0726 0.779859,0.779857 0.779857,0.779857 v 0.793803 0.793802 l -0.68386,0.812721 -0.683858,0.812721 0.585115,0.94674 0.585118,0.946737 -0.258215,0.258215 -0.258214,0.258215 -1.816987,-0.07914 -1.816983,-0.07915 -0.753962,-1.124479 -0.753962,-1.124479 h -0.374346 -0.374348 l -0.12703,0.595312 -0.127032,0.595313 -0.07902,0.529166 -0.07902,0.529167 -1.452637,0.06861 -1.452637,0.0686 z m 6.133124,-4.362709 0.291529,-0.478518 -0.513591,-0.381378 -0.51359,-0.381379 h -0.710782 -0.710785 l -0.318839,0.384178 -0.31884,0.384178 0.176463,0.555987 0.176464,0.555985 1.075219,-0.08027 1.075221,-0.08027 z m 6.685627,4.403169 -0.17639,-0.176387 v -3.402206 -3.402205 l 4.163835,0.07287 4.163838,0.07286 0.09553,0.497462 0.09553,0.497464 -0.356764,0.226089 -0.356762,0.22609 -1.918229,0.004 -1.918229,0.0041 v 0.529166 0.529167 l 1.918229,0.004 1.918229,0.004 0.356762,0.226089 0.356764,0.22609 -0.09473,0.497464 -0.09473,0.497461 -2.114111,0.132292 -2.114113,0.132292 v 0.529166 0.529167 l 2.290611,0.07609 2.290615,0.07609 0.161348,0.420465 0.161348,0.420468 -0.301546,0.363339 -0.301545,0.363339 h -4.024548 -4.024548 l -0.176387,-0.17639 z m 11.25361,-0.14111 -0.3175,-0.3175 v -2.83586 -2.835862 l 0.160599,-0.418513 0.1606,-0.418515 h 1.823775 1.823776 v 2.359609 2.359613 l 0.160599,0.418512 0.1606,0.418516 h 1.801728 1.801725 l 0.118589,0.330729 0.118586,0.330729 -0.238138,0.463021 -0.238141,0.463021 h -3.509648 -3.50965 z m 9.237242,-0.04354 -0.311613,-0.375473 0.07479,-3.137474 0.07479,-3.137475 h 1.852083 1.852084 l 0.132291,2.645834 0.132292,2.645833 1.852083,0.132292 1.852084,0.132291 v 0.661459 0.661458 l -3.599635,0.07336 -3.599635,0.07336 z m 9.086122,0.02762 -0.137703,-0.358846 0.07498,-3.159599 0.07498,-3.159596 1.793703,-0.07841 1.793703,-0.07841 -0.07391,3.517995 -0.07391,3.517995 -1.65707,0.07886 -1.657072,0.07886 z m -65.20753,-27.969094 v -5.828738 h 3.444743 3.444744 l -0.07131,5.754687 -0.07131,5.754688 -3.373438,0.07405 -3.373437,0.07405 z m 115.490623,5.548913 -91.545832,-0.132859 -0.07141,-5.622396 -0.07141,-5.622396 H 16.058723 107.8744 v 5.820833 5.820834 l -0.19844,-0.06558 -0.19843,-0.06558 z M 6.8999358,41.236672 7.7730555,40.871859 8.3553849,40.131547 8.9377143,39.391235 8.8628293,36.726048 8.7879443,34.06086 H 7.8619026 6.935861 l -0.1322917,2.275979 -0.1322917,2.275979 -0.3631247,0.436 -0.3631274,0.436 H 5.2365904 4.5281527 l -0.3175,-0.3175 -0.3175,-0.3175 V 36.900966 34.952113 L 3.6192613,34.440341 3.3453673,33.928568 H 2.7461363 2.1469027 l -0.3175,0.3175 -0.3175,0.3175 0.00106,2.262188 0.00106,2.262187 0.5333867,0.87486 0.5333894,0.874859 0.8546836,0.371555 0.8546861,0.371555 0.8683943,0.01036 0.8683942,0.01036 0.8731197,-0.364813 z m 59.1539502,-0.380661 0.64511,-0.477847 0.486278,-0.651315 0.486275,-0.651314 0.154345,-0.951114 0.154344,-0.951114 -0.458454,-0.966122 -0.458454,-0.966121 -0.794935,-0.566043 -0.794933,-0.566043 -1.258268,-0.120904 -1.258269,-0.120903 -0.959807,0.316765 -0.959808,0.316765 -0.682384,0.894654 -0.682387,0.894654 -0.137507,1.025178 -0.137504,1.025177 0.400799,0.770665 0.400796,0.770664 0.652018,0.608946 0.652015,0.608947 0.762186,0.241776 0.762185,0.241777 1.190625,-0.12464 1.190625,-0.12464 z M 62.274785,39.000964 61.836902,38.51711 v -0.820164 -0.820163 l 0.415377,-0.415377 0.415375,-0.415376 0.618315,-0.155187 0.618313,-0.155187 0.619956,0.32669 0.619955,0.326691 0.194387,0.29112 0.194384,0.29112 0.004,0.818888 0.0041,0.818889 -0.483854,0.437882 -0.483854,0.437882 H 63.64301 62.712663 Z m 15.292027,2.226045 0.896247,-0.374476 0.285879,-0.534171 0.28588,-0.534172 v -0.643171 -0.643171 l -0.524214,-0.66643 -0.524213,-0.666429 -1.040784,-0.416439 -1.040781,-0.416438 -0.186179,-0.301243 -0.186177,-0.301242 1.552737,0.09166 1.552736,0.09166 0.0812,-0.569765 0.0812,-0.569765 -0.603094,-0.422422 -0.603091,-0.422423 h -1.41669 -1.41669 l -0.773396,0.773398 -0.773398,0.773397 v 0.62294 0.622939 l 0.42205,0.602561 0.42205,0.60256 1.223312,0.58079 1.223311,0.58079 -0.124007,0.264584 -0.124008,0.264583 -0.661458,-0.04366 -0.661458,-0.04366 -0.727605,-0.185625 -0.727604,-0.185625 v 0.837367 0.837367 l 0.859896,0.373746 0.859896,0.373746 0.736102,0.01036 0.736103,0.01036 0.896247,-0.374476 z m 11.127047,-0.04096 0.875471,-0.415438 0.313016,-0.755682 0.313012,-0.755682 L 90.00775,38.64443 89.820145,38.029613 89.422164,37.576101 89.02418,37.122589 87.865959,36.680259 86.707735,36.23793 v -0.265066 -0.265066 l 1.427273,0.167748 1.427274,0.167748 0.151924,-0.395903 0.151921,-0.395903 -0.160073,-0.417143 -0.160073,-0.417143 -0.642596,-0.244316 -0.642599,-0.244315 h -1.153099 -1.153102 l -0.814049,0.684978 -0.814051,0.684979 v 0.711358 0.711359 l 0.415292,0.592914 0.415293,0.592915 1.314294,0.666002 1.314291,0.666001 -0.173418,0.280595 -0.173416,0.280596 -0.696272,-0.14169 -0.696273,-0.14169 -0.690205,-0.17202 -0.690203,-0.17202 -0.161387,0.42057 -0.161388,0.42057 0.163586,0.426297 0.163584,0.426297 0.820298,0.357097 0.820299,0.357096 0.753763,0.01036 0.753764,0.01036 0.875472,-0.415439 z M -3.9120555,40.543152 v -0.661459 l -1.5875,-0.132291 -1.5875,-0.132292 -0.076761,-2.499221 -0.076761,-2.499222 -0.2863638,-0.345049 -0.2863665,-0.34505 H -8.389451 -8.9655971 l -0.3175,0.3175 -0.3175,0.3175 v 2.968152 2.968152 l 0.1640178,0.427421 0.1640152,0.42742 2.6802556,-0.07505 2.680253,-0.07505 z m 20.3446085,0.375235 0.160599,-0.418515 v -1.323325 -1.323326 l 0.233863,0.08819 0.233863,0.08819 1.376537,1.653646 1.376537,1.653646 h 0.874834 0.874834 l 0.1606,-0.418515 0.160599,-0.418515 V 37.53172 34.563568 l -0.3175,-0.3175 -0.3175,-0.3175 h -0.555625 -0.555625 l -0.3175,0.3175 -0.3175,0.3175 v 1.402292 1.402292 l -0.198437,-0.0019 -0.198438,-0.0019 -1.314106,-1.594954 -1.314103,-1.594953 -0.645076,-0.161904 -0.645075,-0.161903 -0.422071,0.265655 -0.422069,0.265656 -0.07498,3.131339 -0.07498,3.131341 0.132823,0.346132 0.132824,0.346132 h 0.906039 0.906037 l 0.160599,-0.418514 z m 13.233143,-0.242944 0.433406,-0.661458 h 1.154094 1.154097 l 0.433403,0.661458 0.433406,0.661459 h 0.91994 0.919944 l -0.019,-0.595313 -0.019,-0.595312 -1.383162,-3.042709 -1.383162,-3.042708 h -1.176261 -1.176258 l -1.386687,3.404605 -1.386683,3.404604 0.144258,0.233416 0.144259,0.233417 h 0.879999 0.879996 l 0.433404,-0.661459 z m 1.106054,-2.475699 -0.157398,-0.254673 0.165748,-0.431934 0.165748,-0.431934 0.298133,0.09938 0.29813,0.09938 v 0.48507 0.485069 l -0.306483,0.102161 -0.306483,0.102161 z m 18.998302,2.718643 0.1606,-0.418515 v -0.92645 -0.926451 l 0.330729,0.101515 0.330729,0.101514 0.600417,1.243451 0.600413,1.243451 h 1.053232 1.05323 V 40.931231 40.52556 l -0.648954,-1.280651 -0.648957,-1.28065 0.375957,-0.496491 0.375957,-0.496491 0.0084,-0.836376 0.0084,-0.836376 -0.814051,-0.684979 -0.814049,-0.684978 h -1.778868 -1.778865 l -0.3175,0.3175 -0.3175,0.3175 v 3.210278 3.210278 l 0.17639,0.176389 0.176387,0.176389 h 0.853638 0.853636 z m 0.1606,-4.589168 v -0.548567 h 0.548566 0.548568 l -0.08859,0.459982 -0.08858,0.459983 -0.459981,0.08858 -0.459983,0.08859 z m 47.997543,4.346224 0.433406,-0.661458 h 1.178425 1.178424 l 0.43341,0.661458 0.4334,0.661459 h 0.88 0.88 l 0.1504,-0.243365 0.15041,-0.243364 -1.53194,-3.394657 -1.53194,-3.394656 h -1.182539 -1.182542 l -1.246944,3.042708 -1.246944,3.042709 -0.0098,0.595312 -0.0098,0.595313 h 0.895612 0.895612 z m 1.155539,-2.39657 -0.147614,-0.147613 0.137205,-0.524665 0.137202,-0.524665 0.29704,0.09769 0.297042,0.09769 0.08455,0.574588 0.08455,0.574588 H 99.60253 99.231349 Z m -184.178945,5.791886 -0.192014,-0.192014 0.02675,-5.504255 0.02675,-5.504255 h 3.425993 3.425992 l -0.07141,5.622396 -0.07141,5.622396 -3.189321,0.07387 -3.189321,0.07387 z" style="fill:#e62547;stroke-width:0.26458332"/>
      <path id="path866" d="m -18.728722,71.611108 0.264583,-0.111101 -0.07677,-5.291968 -0.07677,-5.291971 h 62.959407 62.959412 l 0.13345,-0.330729 0.13345,-0.330729 0.0209,5.754687 0.0209,5.754688 -63.301567,-0.02088 -63.301561,-0.02088 0.264583,-0.111101 z m 54.702603,-3.220561 -0.06615,-0.595312 -0.06615,-0.594331 -0.06615,-0.594331 1.549498,-0.167428 1.549495,-0.167431 0.693449,-0.693447 0.693449,-0.693449 v -1.085411 -1.085408 l -0.858057,-0.766675 -0.858057,-0.766673 h -2.914547 -2.914546 l -0.159121,0.414661 -0.15912,0.414657 0.299717,0.299718 0.299715,0.299714 v 2.54 2.54 l -0.299715,0.299715 -0.299717,0.299717 0.163999,0.427374 0.163999,0.427373 1.657073,-0.07886 1.657069,-0.07886 z m -0.154339,-3.417535 -0.17639,-0.176388 V 63.798002 62.79938 l 0.279622,-0.172815 0.27962,-0.172815 0.642392,0.161231 0.64239,0.16123 0.176207,0.702069 0.17621,0.702069 -0.598365,0.484526 -0.598366,0.484526 h -0.323467 -0.323466 z m 15.330413,3.768939 0.144362,-0.376201 -0.294267,-0.549841 -0.294267,-0.549841 0.207748,0.0026 0.207746,0.0026 1.161714,0.923475 1.161714,0.923472 h 1.293987 1.293984 l 0.170567,-0.444486 0.170566,-0.44449 -1.145535,-1.016571 -1.145534,-1.016574 0.629922,-0.670521 0.629923,-0.67052 V 63.784649 62.714155 L 54.484528,61.94748 53.626471,61.180808 h -2.914547 -2.914547 l -0.15912,0.41466 -0.15912,0.414657 0.299717,0.299718 0.299715,0.299558 v 2.54 2.54 l -0.299715,0.299715 -0.299717,0.299717 0.15912,0.414658 0.15912,0.41466 h 1.604108 1.604108 z m -0.320207,-3.964236 -0.142631,-0.37169 0.08479,-0.885081 0.08479,-0.885084 0.562332,-0.08023 0.562335,-0.08022 0.429852,0.429853 0.429856,0.429855 v 0.377976 0.377976 l -0.529167,0.529167 -0.529167,0.529166 H 51.377561 50.97238 Z m 14.975904,3.282103 0.132291,-0.926042 1.010653,-0.08322 1.010653,-0.08322 0.362704,0.301017 0.362704,0.301019 0.08185,0.708242 0.08185,0.708242 1.657069,0.07886 1.657073,0.07886 0.144068,-0.375438 0.144068,-0.375438 -0.701736,-1.026338 -0.701736,-1.02634 -0.800933,-1.577713 -0.800931,-1.57771 -0.632521,-1.001977 -0.632518,-1.001975 h -1.436274 -1.436275 l -0.166868,0.27 -0.16687,0.269999 0.664655,0.789898 0.664657,0.789897 -0.931902,2.048958 -0.9319,2.048957 -0.407339,0.453165 -0.407339,0.453168 0.16256,0.423629 0.162562,0.423627 0.861714,-0.08304 0.861716,-0.08304 z m 1.058333,-2.645833 v -0.264584 h 0.264583 0.264584 v 0.264584 0.264583 h -0.264584 -0.264583 z m 18.948876,3.026359 0.729885,-0.545515 0.5099,-0.682953 0.509897,-0.682953 V 65.149401 63.76988 l -0.509897,-0.682953 -0.5099,-0.682953 -0.729689,-0.545516 -0.729689,-0.545515 h -2.693546 -2.693546 l 0.104926,0.529167 0.104926,0.529166 0.111458,2.5971 0.111459,2.5971 -0.312132,0.376092 -0.312129,0.376094 0.163087,0.425001 0.163089,0.425 2.626008,-0.0909 2.626008,-0.0909 z m -2.809293,-3.335112 v -2.640465 l 0.456375,0.08789 0.456377,0.08789 0.333473,0.659114 0.333475,0.659114 0.0039,1.107255 0.0039,1.107255 -0.244285,0.642517 -0.244284,0.642514 -0.549466,0.14369 -0.549465,0.143687 z m 13.907683,3.285315 0.159432,-0.727604 0.10777,-0.346059 0.107773,-0.346062 1.1269,0.08148 1.1269,0.08147 0.298252,0.926042 0.298252,0.926042 1.6234,0.07886 1.6234,0.07886 0.16096,-0.419443 0.16096,-0.419444 -0.46775,-0.516851 -0.46774,-0.516847 -1.61487,-2.979026 -1.614864,-2.979026 h -1.565452 -1.56545 l -0.106018,0.318056 -0.106021,0.318058 0.546991,0.46835 0.546992,0.468346 v 0.494483 0.494485 l -1.212326,2.347285 -1.212326,2.347286 0.169608,0.274428 0.169606,0.274431 h 0.773094 0.773097 z m 1.173567,-2.976562 v -0.264584 h 0.264583 0.264583 v 0.264584 0.264583 h -0.264583 -0.264583 z m -190.76458,-5.291667 v -6.35 h 30.774068 30.774068 l 0.579056,0.539474 0.579057,0.539473 v 1.00702 1.007019 l -0.556893,0.504028 -0.556892,0.504028 -27.687378,0.132291 -27.687378,0.132292 -0.07287,4.167188 -0.07286,4.167187 h -3.03599 -3.035989 z m 53.922082,-3.4925 0.3175,-0.3175 v -0.599232 -0.599233 l -0.511773,-0.273892 -0.511773,-0.273893 h -23.146795 -23.146796 l -0.418514,0.160599 -0.418515,0.160599 v 0.853637 0.853637 l 0.176389,0.176389 0.176389,0.176389 h 23.583195 23.583193 z m -44.547467,9.493885 -0.133777,-0.348618 0.07594,-2.760236 0.07594,-2.760239 1.521354,-0.07935 1.521354,-0.07935 v 3.188205 3.188203 h -1.463512 -1.463512 z m 6.500384,-2.826385 v -3.175 h 4.088593 4.088591 l 0.644734,0.293759 0.644731,0.293759 0.293759,0.644731 0.293759,0.644734 v 0.364125 0.364125 l -0.661459,0.786098 -0.661458,0.786099 v 0.317838 0.317836 l 0.547182,0.768448 0.547185,0.768448 -1.936247,-7.94e-4 -1.936245,-7.93e-4 -0.52968,-0.991474 -0.529682,-0.991473 h -0.793234 -0.793237 l -0.08212,0.992188 -0.08212,0.992187 h -1.571528 l -1.571529,1.59e-4 z m 6.297084,-0.3175 0.3175,-0.3175 v -0.599234 -0.599231 l -0.511773,-0.273894 -0.511773,-0.273891 h -0.890519 -0.890519 l -0.3175,0.3175 -0.3175,0.3175 v 0.696735 0.696738 l 0.176389,0.176387 0.176389,0.17639 h 1.225904 1.225902 z m 6.667499,0.310428 v -3.182075 l 3.88088,0.07322 3.880881,0.07322 0.109919,0.330729 0.109918,0.330729 h -1.852493 -1.852493 l -0.418513,0.1606 -0.418515,0.160599 v 0.737134 0.737135 l 0.418515,0.160599 0.418513,0.1606 h 1.852493 1.852493 l -0.109077,0.330729 -0.109074,0.330729 -2.095786,0.132292 -2.095786,0.132291 v 0.79375 0.79375 l 2.315104,0.07645 2.315105,0.07645 v 0.386572 0.386575 h -4.101042 -4.101042 z m 11.377084,0.0071 v -3.175 h 1.5875 1.5875 v 2.35961 2.359612 l 0.160599,0.418513 0.160599,0.418515 h 1.823776 1.823775 v 0.396875 0.396875 h -3.571874 -3.571875 z m 9.053581,0.06615 0.07454,-3.108854 1.644254,-0.07853 1.644253,-0.07852 0.07554,2.724359 0.07554,2.724361 1.918229,0.07774 1.918229,0.07774 v 0.385284 0.385283 h -3.712565 -3.712561 z m 9.202668,-0.06614 v -3.175 h 1.5875 1.5875 v 3.175 3.175 h -1.5875 -1.5875 z M -99.558929,38.698973 v -5.828738 h 3.444743 3.444744 l -0.07131,5.754687 -0.07131,5.754688 -3.373438,0.07405 -3.373437,0.07405 z M 107.34523,44.247318 V 43.982735 H 15.942111 -75.461014 l -0.07656,-5.424222 -0.07656,-5.424222 91.611978,2.64e-4 91.611976,2.63e-4 v 5.688542 5.688542 h -0.13229 -0.1323 z M 7.6591894,41.120121 8.3825179,40.698694 8.7836686,39.853332 9.1848193,39.007971 v -2.354493 -2.354493 l -0.3175,-0.3175 -0.3175,-0.3175 H 7.8619026 7.173986 l -0.3175,0.3175 -0.3175,0.3175 v 2.143125 2.143125 l -0.3175,0.3175 -0.3175,0.3175 H 5.1724607 4.4409381 L 4.167044,38.708462 3.8931527,38.19669 V 36.090936 33.985183 L 3.4746374,33.824584 3.0561248,33.663985 H 2.5674949 2.0788677 l -0.4157741,0.415774 -0.4157742,0.415774 0.00159,1.89933 0.00159,1.89933 0.2627074,0.945689 0.2627048,0.945689 0.5957147,0.554102 0.5957146,0.554103 0.9260417,0.268089 0.9260416,0.268088 1.0583333,-0.144202 1.0583334,-0.144203 0.7233284,-0.421427 z m 57.2111686,0.456093 1.151117,-0.289854 0.815763,-0.797559 0.815761,-0.797559 0.287798,-1.068794 0.287795,-1.068794 -0.441341,-1.155636 -0.441343,-1.155637 -0.947971,-0.723052 -0.94797,-0.723052 h -1.760982 -1.760982 l -0.94797,0.723052 -0.947971,0.723052 -0.459769,1.203885 -0.459766,1.203885 0.310311,1.03573 0.310311,1.035731 0.779526,0.779524 0.779524,0.779524 0.999955,0.265359 0.999956,0.265359 0.213566,0.02735 0.213567,0.02734 z m -2.451373,-2.673479 -0.3175,-0.3175 v -0.854226 -0.854226 l 0.415774,-0.415774 0.415774,-0.415774 h 0.755952 0.755952 l 0.415774,0.415774 0.415774,0.415774 v 0.854226 0.854226 l -0.3175,0.3175 -0.3175,0.3175 h -0.9525 -0.9525 z m 15.616036,2.402839 0.465154,-0.248943 0.421145,-0.814403 0.421142,-0.814403 -0.173434,-0.699108 -0.173437,-0.699107 -0.54846,-0.587634 -0.54846,-0.587634 -0.887135,-0.292781 -0.887134,-0.292781 v -0.272371 -0.272372 l 0.378086,0.145085 0.378085,0.145085 0.907883,0.17032 0.907886,0.17032 0.169003,-0.440414 0.169002,-0.440414 -0.157715,-0.628383 -0.157713,-0.628382 -0.931759,-0.307508 -0.931757,-0.307508 -1.190392,0.134175 -1.190392,0.134174 -0.683234,0.683233 -0.683233,0.683233 v 0.920098 0.920098 l 0.515937,0.580738 0.515938,0.580739 1.190625,0.543577 1.190625,0.543578 -0.48395,0.102899 -0.483949,0.1029 -0.76807,-0.318145 -0.768069,-0.318145 -0.401627,0.154118 -0.401627,0.154119 v 0.769657 0.769657 l 0.398505,0.330731 0.398507,0.33073 0.858264,0.211818 0.858266,0.211817 0.92117,-0.13676 0.921171,-0.136761 z m 11.232605,-0.158339 0.575514,-0.374417 0.264329,-0.758251 0.264327,-0.758251 -0.14876,-0.613353 -0.148762,-0.613353 -0.53155,-0.587634 -0.531553,-0.587634 -0.887135,-0.292781 -0.887135,-0.292781 V 36.019675 35.77057 l 0.727604,0.186183 0.727605,0.186184 0.529166,0.01729 0.529167,0.0173 V 35.2593 34.341072 l -0.661458,-0.334644 -0.661459,-0.334643 -0.952706,-0.0039 -0.952704,-0.0039 -0.841272,0.293269 -0.841271,0.293268 -0.388835,0.751926 -0.388837,0.751925 v 0.522006 0.522005 l 0.660474,0.784928 0.660472,0.784928 1.125466,0.476087 1.125463,0.476088 -0.581665,0.09882 -0.581663,0.09882 -0.52542,-0.281197 -0.525423,-0.281196 h -0.54656 -0.54656 v 0.893644 0.893645 l 0.398505,0.330731 0.398507,0.33073 0.858263,0.203061 0.858266,0.203062 0.926042,-0.144437 0.926042,-0.144437 z m -92.8782603,0.05678 0.1525217,-0.397466 -0.1658673,-0.660867 -0.1658646,-0.660867 h -1.5824597 -1.5824596 l -0.00361,-2.182812 -0.00361,-2.182813 -0.1602952,-0.598206 -0.1602925,-0.598207 -0.6107483,-0.153288 -0.6107482,-0.153288 -0.5482617,0.174012 -0.5482616,0.174012 v 3.642239 3.64224 l 0.1763898,0.176389 0.1763871,0.176389 h 2.7423321 2.7423321 z m 20.1454593,-1.057741 0.07396,-1.322917 0.122735,-0.347836 0.122733,-0.347836 1.485616,1.751161 1.485617,1.751161 0.96352,-0.08041 0.963517,-0.08041 0.07391,-3.683753 0.07391,-3.683753 -0.338494,-0.2148 -0.338492,-0.214799 -0.576414,-0.0041 -0.576413,-0.0041 -0.415774,0.415774 -0.415774,0.415774 v 1.330096 1.330097 l -1.370367,-1.620447 -1.370367,-1.620447 -0.594913,-0.149314 -0.594913,-0.149314 -0.519695,0.164945 -0.519694,0.164945 -0.157245,0.58655 -0.157247,0.586549 -0.0036,2.729373 -0.0036,2.729374 0.281887,0.526712 0.28189,0.526713 0.974881,-0.08109 0.974884,-0.08109 z m 13.179533,0.79375 0.433404,-0.661459 h 1.129765 1.129766 l 0.433403,0.661459 0.433406,0.661458 h 1.052232 1.052235 l -0.0054,-0.595313 -0.0054,-0.595312 -1.399651,-3.174242 -1.399654,-3.174242 -0.711642,-0.250271 -0.711641,-0.250271 -0.723387,0.254401 -0.723387,0.254401 -1.363863,3.423566 -1.363867,3.423565 0.131186,0.341859 0.131183,0.341859 h 1.023927 1.023924 z m 1.166294,-3.027094 v -0.248968 l 0.264584,-0.163522 0.264583,-0.163521 v 0.41249 0.41249 h -0.264583 -0.264584 z m 18.998351,2.299489 0.08064,-1.25677 h 0.245631 0.245629 l 0.670372,1.322916 0.670372,1.322917 h 1.06218 1.062181 l 0.164063,-0.427544 0.164065,-0.427543 -0.671835,-1.369844 -0.671833,-1.369843 0.367173,-0.502141 0.367176,-0.502141 V 36.378398 35.75437 L 53.24598,35.002445 52.857145,34.250519 52.015873,33.957251 51.174602,33.663982 h -1.529117 -1.52912 l -0.415774,0.415774 -0.415774,0.415774 v 3.041203 3.041204 l 0.281887,0.526712 0.281889,0.526713 0.974882,-0.08109 0.974883,-0.08109 z m 0.183941,-3.902604 -0.163521,-0.264583 h 0.560396 0.560395 l -0.16352,0.264583 -0.163521,0.264584 h -0.233354 -0.233355 z m 47.913913,4.630209 0.433404,-0.661459 h 1.129765 1.129764 l 0.43341,0.661459 0.4334,0.661458 h 1.02393 1.02392 l 0.13886,-0.361856 0.13886,-0.361855 -1.5057,-3.404227 -1.5057,-3.404226 -0.72152,-0.253744 -0.721516,-0.253743 -0.710091,0.249725 -0.710091,0.249726 -1.274284,3.159775 -1.274283,3.159776 v 0.610325 0.610324 h 1.052234 1.052232 z m 1.166294,-3.027094 v -0.248968 l 0.264583,-0.163522 0.264584,-0.163521 v 0.41249 0.41249 h -0.264584 -0.264583 z m -184.205727,0.64558 -0.07656,-5.424222 h 3.307292 3.307292 l -0.07656,5.424222 -0.07656,5.424222 h -3.154168 -3.154168 z" style="fill:#e20629;stroke-width:0.26458332"/>
      <path id="path864" d="m -99.558929,38.698973 v -5.828738 h 3.444743 3.444744 l -0.07131,5.754687 -0.07131,5.754688 -3.373438,0.07405 -3.373437,0.07405 z" style="fill:#039d46;stroke-width:0.26458332"/>
    </g>
    <g transform="translate(65.767857,94.494048)" id="g826"/>
  </g>
</svg>